<?xml version="1.0" encoding="UTF-8"?>
<svg version="1.1" xmlns="http://www.w3.org/2000/svg" width="240" height="240">
<path d="M0 0 C8.64968086 6.11960968 13.00528071 13.65058689 15 24 C16.90289321 44.46895936 7.61049527 60.80114363 -5 76 C-6.97037866 78.36445439 -8.96165778 80.69345485 -11 83 C-10.31035156 83.53367187 -9.62070313 84.06734375 -8.91015625 84.6171875 C6.5957104 96.91127655 16.61728621 111.30776677 23 130 C23.41507813 131.17433594 23.83015625 132.34867188 24.2578125 133.55859375 C29.61575 151.26226836 29.50157901 172.0039413 22 189 C21.72172363 189.64839844 21.44344727 190.29679688 21.15673828 190.96484375 C15.60493494 203.72932606 15.60493494 203.72932606 10 206 C9.19433594 205.77570313 8.38867188 205.55140625 7.55859375 205.3203125 C6.71425781 205.21460938 5.86992187 205.10890625 5 205 C2.77988741 206.8994636 0.97946736 208.70324397 -0.9375 210.875 C-7.40713293 217.80331851 -17.0679871 227.0958244 -26.875 228.375 C-30 228 -30 228 -32.3125 225.8125 C-33.95018857 223.08301905 -34.64161802 221.13584232 -35 218 C-35.66 218 -36.32 218 -37 218 C-37.12955078 218.87011719 -37.12955078 218.87011719 -37.26171875 219.7578125 C-38.51874548 226.7464198 -40.66446883 230.23627418 -46.1875 234.8125 C-51.84365829 237.20065572 -57.57746112 237.83565034 -63.375 235.625 C-64.57125 235.08875 -65.7675 234.5525 -67 234 C-68.97375977 233.21344698 -68.97375977 233.21344698 -71 233 C-72.134375 233.639375 -73.26875 234.27875 -74.4375 234.9375 C-80.04213871 237.96589765 -85.7953606 237.64885118 -92 237 C-97.59148874 235.27172166 -100.5234354 231.49980879 -104 227 C-104.268125 227.598125 -104.53625 228.19625 -104.8125 228.8125 C-106.02283376 231.04206218 -106.97807255 232.47015609 -109 234 C-122.79283593 232.68639658 -134.33663335 222.65558215 -143.125 212.5625 C-145 210 -145 210 -145 208 C-145.99 208.433125 -145.99 208.433125 -147 208.875 C-151.086268 209.04526117 -152.71213789 207.66201662 -155.81640625 205.12109375 C-167.15636103 194.10571729 -173.73379078 179.94720097 -174.3359375 164.1796875 C-174.50769796 152.13462958 -174.22652683 141.40050001 -170 130 C-169.649375 128.98421875 -169.29875 127.9684375 -168.9375 126.921875 C-162.93135766 110.98891407 -152.13951962 97.63858616 -139 87 C-139.53367188 86.59910156 -140.06734375 86.19820313 -140.6171875 85.78515625 C-165.65409946 66.68259886 -165.65409946 66.68259886 -169 52 C-170.4498072 39.17057406 -168.43428466 26.6489271 -160.75 15.9375 C-156.33079104 10.79956255 -149.86460549 5.39041411 -142.9453125 4.69140625 C-132.40538982 4.33576469 -125.08272001 6.13978744 -116.609375 12.91015625 C-102.24281655 26.34740935 -93.13278217 44.25825727 -88.69140625 63.21875 C-88.28088601 65.89099038 -88.28088601 65.89099038 -87 67 C-85.77410156 66.76990234 -85.77410156 66.76990234 -84.5234375 66.53515625 C-80.12989484 65.86784434 -76.0418205 66.13106987 -71.625 66.4375 C-70.79355469 66.48970703 -69.96210937 66.54191406 -69.10546875 66.59570312 C-67.06991892 66.72438731 -65.03489559 66.86135407 -63 67 C-62.98582031 66.27039063 -62.97164063 65.54078125 -62.95703125 64.7890625 C-62.000125 43.84057441 -54.0563261 22.3262026 -38.625 7.7578125 C-28.11582392 -1.20782834 -13.05595135 -7.28764149 0 0 Z " fill="#80655D" transform="translate(193,3)"/>
<path d="M0 0 C4.97325487 2.21751191 8.69229515 5.83058725 10.79296875 10.921875 C11.75270289 14.52989809 12.06880182 18.03360282 12.3125 21.75 C12.66166392 25.35373115 12.66166392 25.35373115 15.125 28.0625 C16.07375 28.701875 17.0225 29.34125 18 30 C20.46770234 32.55176032 22.72536994 35.27611868 25 38 C25.63035156 38.7425 26.26070313 39.485 26.91015625 40.25 C29.00856896 42.78645115 31.01260868 45.37562428 33 48 C33.40637695 48.51836426 33.81275391 49.03672852 34.23144531 49.57080078 C40.43082092 57.59394067 43.13540476 63.29894377 42.4296875 73.66015625 C42.28789062 74.76230469 42.14609375 75.86445313 42 77 C41.89945313 77.78246094 41.79890625 78.56492187 41.6953125 79.37109375 C40.38365962 86.02304764 36.72824536 92.40763196 33 98 C35.41794061 97.21206413 37.8343187 96.41980826 40.25 95.625 C40.93191406 95.40328125 41.61382812 95.1815625 42.31640625 94.953125 C45.6756032 93.84426387 48.89741865 92.71121755 52 91 C50.54511002 94.76181498 48.84012077 95.91326024 45.3125 97.75 C41.66288157 99.81759499 39.11854367 101.72525804 36.5 105 C32.79912001 109.59297756 28.28731791 112.44816832 23 115 C22.34 115 21.68 115 21 115 C21.99 117.64 22.98 120.28 24 123 C28.06225548 122.42176904 30.84762346 121.10882263 34.3125 118.9375 C35.19550781 118.38964844 36.07851562 117.84179688 36.98828125 117.27734375 C37.98408203 116.64505859 37.98408203 116.64505859 39 116 C37.45171854 119.38122453 35.97413266 120.79338545 33 123 C32.505 124.485 32.505 124.485 32 126 C28.77352799 128.2704803 25.86276537 128.56331995 22 128 C18.78224173 124.95617461 17.50069143 122.38104998 17 118 C16.34 118 15.68 118 15 118 C14.87044922 118.87011719 14.87044922 118.87011719 14.73828125 119.7578125 C13.48125452 126.7464198 11.33553117 130.23627418 5.8125 134.8125 C0.15634171 137.20065572 -5.57746112 137.83565034 -11.375 135.625 C-12.57125 135.08875 -13.7675 134.5525 -15 134 C-16.97375977 133.21344698 -16.97375977 133.21344698 -19 133 C-20.134375 133.639375 -21.26875 134.27875 -22.4375 134.9375 C-28.04213871 137.96589765 -33.7953606 137.64885118 -40 137 C-45.59148874 135.27172166 -48.5234354 131.49980879 -52 127 C-51.34 126.67 -50.68 126.34 -50 126 C-50 123.03 -50 120.06 -50 117 C-54.53140653 116.06619039 -54.53140653 116.06619039 -59 117 C-66.21536462 114.28896388 -72.55968949 110.44031051 -78 105 C-78 104.34 -78 103.68 -78 103 C-78.9075 103.0825 -79.815 103.165 -80.75 103.25 C-84 103 -84 103 -86.375 101 C-86.91125 100.34 -87.4475 99.68 -88 99 C-87.38125 99.165 -86.7625 99.33 -86.125 99.5 C-80.44095146 100.40944777 -74.56334284 100.61889422 -69 99 C-69 98.34 -69 97.68 -69 97 C-69.58652344 96.75765625 -70.17304687 96.5153125 -70.77734375 96.265625 C-76.26292649 93.14202428 -80.92583598 85.83358631 -83 80 C-83 73.94197312 -79.58151816 68.35355426 -77 63 C-76.505 64.485 -76.505 64.485 -76 66 C-75.01 66 -74.02 66 -73 66 C-73.03480469 66.64066406 -73.06960937 67.28132813 -73.10546875 67.94140625 C-73.29119356 73.87575616 -72.69458669 77.71861009 -70 83 C-69.67 83.99 -69.34 84.98 -69 86 C-66.6569191 87.12085312 -66.6569191 87.12085312 -64 88 C-63.38253906 88.34160156 -62.76507813 88.68320313 -62.12890625 89.03515625 C-57.63537313 91.07167493 -52.35538285 90.74359356 -47.7109375 89.27734375 C-42.70269453 86.96079691 -39.50088633 84.00177266 -37 79 C-36.50186871 73.54505412 -36.28882973 68.62976519 -38.5 63.5625 C-43.50561317 58.4317465 -47.61246412 55.713744 -54.9375 55.3125 C-62.22819612 55.59895321 -66.96779901 58.96779901 -72 64 C-72.33 62.68 -72.66 61.36 -73 60 C-71.33779419 58.99260254 -69.66979326 57.99477045 -68 57 C-66.96875 56.278125 -65.9375 55.55625 -64.875 54.8125 C-60.16453196 52.13843517 -55.25944706 52.33005579 -50 53 C-47.4293496 53.77696687 -45.38386107 54.72860743 -43 56 C-44.65 53.03 -46.3 50.06 -48 47 C-47.34 47 -46.68 47 -46 47 C-45.34 46.34 -44.68 45.68 -44 45 C-43.75507812 45.58265625 -43.51015625 46.1653125 -43.2578125 46.765625 C-39.68405745 54.60323953 -34.65541875 60.60882774 -29 67 C-25.88118721 66.39175924 -25.88118721 66.39175924 -23.5 64.375 C-23.005 63.92125 -22.51 63.4675 -22 63 C-18.52029732 63.23198018 -15.88497934 65.15681876 -13 67 C-2.30114676 58.10744666 3.56899187 49.67785484 9 37 C9.66 37 10.32 37 11 37 C10.67 39.64 10.34 42.28 10 45 C11.093125 44.9175 12.18625 44.835 13.3125 44.75 C18.96174492 44.70943092 23.84643404 46.87794343 29 49 C24.06806664 42.9392019 19.1177512 36.90509753 14 31 C13.34 32.65 12.68 34.3 12 36 C11.34 36 10.68 36 10 36 C9.94054199 35.11646851 9.94054199 35.11646851 9.87988281 34.21508789 C9.68705369 31.49603749 9.46867918 28.77958885 9.25 26.0625 C9.188125 25.13630859 9.12625 24.21011719 9.0625 23.25585938 C8.30158031 14.21993805 5.24896984 7.31106514 0 0 Z " fill="#0A0807" transform="translate(141,103)"/>
<path d="M0 0 C8.64968086 6.11960968 13.00528071 13.65058689 15 24 C16.90289321 44.46895936 7.61049527 60.80114363 -5 76 C-6.97037866 78.36445439 -8.96165778 80.69345485 -11 83 C-10.31035156 83.53367187 -9.62070313 84.06734375 -8.91015625 84.6171875 C6.5957104 96.91127655 16.61728621 111.30776677 23 130 C23.41507813 131.17433594 23.83015625 132.34867188 24.2578125 133.55859375 C29.61575 151.26226836 29.50157901 172.0039413 22 189 C21.72172363 189.64839844 21.44344727 190.29679688 21.15673828 190.96484375 C15.60493494 203.72932606 15.60493494 203.72932606 10 206 C8.79730469 205.6596875 8.79730469 205.6596875 7.5703125 205.3125 C6.29800781 205.1578125 6.29800781 205.1578125 5 205 C2.71386228 206.94048825 0.85172313 208.78017121 -1.125 211 C-6.6018081 216.84261189 -11.94839195 221.11384326 -19 225 C-19.33 224.01 -19.66 223.02 -20 222 C-19.13375 221.484375 -18.2675 220.96875 -17.375 220.4375 C-14.16135583 218.30761405 -11.98698112 215.7624506 -9.5703125 212.7890625 C-7.97746192 210.97432229 -6.31212117 209.51755047 -4.4375 208 C0.70616368 203.70619076 0.70616368 203.70619076 4 198 C3.81566085 194.5026767 3.0525241 191.33187564 2 188 C2.66 188 3.32 188 4 188 C4.84069415 189.60032137 5.67231505 191.20541171 6.5 192.8125 C6.9640625 193.70582031 7.428125 194.59914062 7.90625 195.51953125 C9 198 9 198 9 201 C16.71495065 194.61679678 20.70549276 178.69162061 22 169 C23.68821258 142.21064601 16.37602721 118.30451782 -1.3046875 97.78515625 C-5.36442149 93.59009779 -9.75630189 89.63860208 -15 87 C-19.41506815 87.23237201 -23.06423952 90.47350368 -26.66015625 92.8203125 C-27.43230469 93.20960937 -28.20445312 93.59890625 -29 94 C-29.99 93.67 -30.98 93.34 -32 93 C-31.24976563 92.45472656 -30.49953125 91.90945312 -29.7265625 91.34765625 C-26.9926676 89.3333886 -24.28482373 87.29303423 -21.59423828 85.22167969 C-20.21826155 84.16725586 -18.82725926 83.13249315 -17.43359375 82.1015625 C-4.69724843 71.82016348 6.38531454 53.97587295 8.27636719 37.60791016 C9.18552524 26.83582714 8.97457285 16.85349873 2 8 C-2.2249876 3.41315003 -6.64906643 2.6417354 -12.75 2.3125 C-22.07204974 2.68178891 -29.41443736 6.29878404 -36.25 12.5625 C-45.46978746 22.73869695 -49.80879767 33.88063306 -53.40673828 46.87304688 C-53.89600675 48.62716495 -54.4251473 50.37011032 -54.96484375 52.109375 C-57.86860303 62.10639699 -58.23159832 72.66451463 -59 83 C-59.66 82.67 -60.32 82.34 -61 82 C-61.99 77.545 -61.99 77.545 -63 73 C-71.25 72.67 -79.5 72.34 -88 72 C-88 74.97 -88 77.94 -88 81 C-89.485 81.495 -89.485 81.495 -91 82 C-91.09796875 80.85144531 -91.1959375 79.70289062 -91.296875 78.51953125 C-93.47137721 55.12087602 -102.42219561 34.03936142 -119.8046875 17.77734375 C-126.55797513 12.30982441 -133.05314685 11.21845771 -141.6875 11.48828125 C-146.74632316 12.26977398 -149.59726706 14.2751637 -153 18 C-153.48984375 18.52980469 -153.9796875 19.05960938 -154.484375 19.60546875 C-158.1850424 24.18776574 -159.60134373 29.35812302 -161 35 C-161.18175781 35.66 -161.36351562 36.32 -161.55078125 37 C-164.05195432 48.13565751 -160.01205302 58.35968077 -154.3125 67.79296875 C-146.85162361 77.90695851 -135.6773719 85.29190495 -125.01171875 91.66015625 C-123 93 -123 93 -122 95 C-125.40312738 93.94124926 -128.01353231 92.99097846 -131 91 C-137.58924301 91.33486317 -141.56126073 96.63815228 -146 101 C-146.62261719 101.598125 -147.24523437 102.19625 -147.88671875 102.8125 C-163.62604107 119.24890187 -168.64222086 140.63764298 -168.31640625 162.6015625 C-168.06118769 169.94203259 -166.86555875 176.18842593 -164 183 C-163.45666016 184.35544922 -163.45666016 184.35544922 -162.90234375 185.73828125 C-160.0528509 192.10375849 -155.42363432 199.78818284 -149 203 C-148.731875 202.030625 -148.46375 201.06125 -148.1875 200.0625 C-147.795625 199.051875 -147.40375 198.04125 -147 197 C-146.01 196.67 -145.02 196.34 -144 196 C-144.144375 197.155 -144.28875 198.31 -144.4375 199.5 C-144.48853273 203.59719951 -143.22673782 205.37942887 -140.5 208.375 C-139.8503125 209.02210938 -139.200625 209.66921875 -138.53125 210.3359375 C-137 212 -137 212 -137 214 C-136.40316406 214.27328125 -135.80632812 214.5465625 -135.19140625 214.828125 C-133.07301786 215.96095302 -131.66705244 217.10449231 -129.9375 218.75 C-124.12479681 223.85965486 -117.57956812 227.48408638 -110 229 C-109.505 222.565 -109.505 222.565 -109 216 C-105.29847322 215.07461831 -104.36541838 214.91825838 -101 216 C-100.875 223.75 -100.875 223.75 -102 226 C-102.99 226.33 -103.98 226.66 -105 227 C-106.22520264 230.00847418 -106.22520264 230.00847418 -107 233 C-113.43064282 234.87755995 -118.30518173 231.95260005 -124 229 C-127.20045385 226.87458304 -130.09975096 224.5146668 -133 222 C-133.63808594 221.48179687 -134.27617187 220.96359375 -134.93359375 220.4296875 C-138.77926756 217.27044579 -142.01006669 213.98657774 -145 210 C-145 209.34 -145 208.68 -145 208 C-145.99 208.433125 -145.99 208.433125 -147 208.875 C-151.086268 209.04526117 -152.71213789 207.66201662 -155.81640625 205.12109375 C-167.15636103 194.10571729 -173.73379078 179.94720097 -174.3359375 164.1796875 C-174.50769796 152.13462958 -174.22652683 141.40050001 -170 130 C-169.649375 128.98421875 -169.29875 127.9684375 -168.9375 126.921875 C-162.93135766 110.98891407 -152.13951962 97.63858616 -139 87 C-139.53367188 86.59910156 -140.06734375 86.19820313 -140.6171875 85.78515625 C-165.65409946 66.68259886 -165.65409946 66.68259886 -169 52 C-170.4498072 39.17057406 -168.43428466 26.6489271 -160.75 15.9375 C-156.33079104 10.79956255 -149.86460549 5.39041411 -142.9453125 4.69140625 C-132.40538982 4.33576469 -125.08272001 6.13978744 -116.609375 12.91015625 C-102.24281655 26.34740935 -93.13278217 44.25825727 -88.69140625 63.21875 C-88.28088601 65.89099038 -88.28088601 65.89099038 -87 67 C-85.77410156 66.76990234 -85.77410156 66.76990234 -84.5234375 66.53515625 C-80.12989484 65.86784434 -76.0418205 66.13106987 -71.625 66.4375 C-70.79355469 66.48970703 -69.96210937 66.54191406 -69.10546875 66.59570312 C-67.06991892 66.72438731 -65.03489559 66.86135407 -63 67 C-62.98582031 66.27039063 -62.97164063 65.54078125 -62.95703125 64.7890625 C-62.000125 43.84057441 -54.0563261 22.3262026 -38.625 7.7578125 C-28.11582392 -1.20782834 -13.05595135 -7.28764149 0 0 Z " fill="#060403" transform="translate(193,3)"/>
<path d="M0 0 C11.34282327 -0.66433021 22.00087973 1.71339889 31 9 C35.04672901 14.62045696 34.58006027 19.21654383 33.56640625 25.828125 C32.07497505 32.90547553 29.3210426 38.43116962 25.42578125 44.50390625 C23.75200371 46.95506306 23.75200371 46.95506306 24 50 C25.65 50.33 27.3 50.66 29 51 C22.82537288 57.77217168 15.68513514 62.15759214 7 65 C6.61328125 64.37351562 6.2265625 63.74703125 5.828125 63.1015625 C5.30734375 62.28429687 4.7865625 61.46703125 4.25 60.625 C3.73953125 59.81289062 3.2290625 59.00078125 2.703125 58.1640625 C0.11351015 54.87358858 -1.82943838 54.14709438 -5.953125 53.62890625 C-13.21430004 53.48265035 -18.51339792 53.91410481 -24 59 C-24.495 59.99 -24.495 59.99 -25 61 C-25.66 61 -26.32 61 -27 61 C-27.598125 60.38125 -28.19625 59.7625 -28.8125 59.125 C-32.47649005 55.56569538 -36.28895361 54.68608942 -41.3125 54.5625 C-46.94026475 54.66897122 -50.89047383 56.11119007 -55 60 C-56.55761769 62.62459397 -56.55761769 62.62459397 -57 65 C-62.97749912 64.5569344 -66.89728783 62.72314336 -71.9375 59.5625 C-72.62134766 59.15451172 -73.30519531 58.74652344 -74.00976562 58.32617188 C-75.71455086 57.28218251 -77.36340251 56.14793517 -79 55 C-79 54.34 -79 53.68 -79 53 C-73.25 50 -73.25 50 -71 50 C-72.4985567 47.23950082 -73.92572728 45.07215064 -76.1875 42.875 C-78.84507499 40.29124654 -81.14986782 37.47725893 -83.4375 34.5625 C-84.15808594 33.65628906 -84.87867188 32.75007813 -85.62109375 31.81640625 C-87 29 -87 29 -86.32421875 25.80078125 C-85.10656037 23.22537991 -83.83524949 21.16893122 -82 19 C-81.98582031 19.556875 -81.97164063 20.11375 -81.95703125 20.6875 C-81.48738797 28.20179255 -78.93920305 33.13616113 -73.5625 38.375 C-68.35782429 41.67552606 -63.12327991 42.87321421 -57 42 C-51.007716 40.33046304 -46.3146091 38.52434851 -43 33 C-42.64164063 32.43796875 -42.28328125 31.8759375 -41.9140625 31.296875 C-40.6264483 28.06133164 -40.8108117 25.21616798 -40.875 21.75 C-40.89304688 20.48671875 -40.91109375 19.2234375 -40.9296875 17.921875 C-40.95289063 16.95765625 -40.97609375 15.9934375 -41 15 C-40.113125 15.825 -39.22625 16.65 -38.3125 17.5 C-36.13779613 19.30028552 -35.1387283 19.97096384 -32.3125 20.5625 C-29.8292563 20.1875932 -29.8292563 20.1875932 -28.1875 18 C-27.795625 17.34 -27.40375 16.68 -27 16 C-23 18 -23 18 -21.1875 19.375 C-19.03443948 20.23773871 -19.03443948 20.23773871 -17.19140625 19.234375 C-15.4211959 18.22282623 -13.70644858 17.11575484 -12 16 C-12.05800781 16.9178125 -12.11601562 17.835625 -12.17578125 18.78125 C-12.6072244 28.18821245 -12.6072244 28.18821245 -8.58984375 36.37890625 C-3.46049656 41.60907599 0.56658843 43.32289343 8 43.625 C14.19055357 43.38639194 18.50169437 42.35100595 23 38 C27.53831116 32.18165236 28.8429469 27.23529421 28 20 C26.29669559 14.72345918 23.78360789 10.93539575 19 8 C12.41645093 4.72946272 6.67884045 3.94890273 -0.5 6 C-1.7375 6.495 -1.7375 6.495 -3 7 C-1.125 2.25 -1.125 2.25 0 0 Z " fill="#F9F0E4" transform="translate(147,153)"/>
<path d="M0 0 C3.99906155 1.35803028 6.48860672 3.29683424 9 6.75 C10.58630213 11.90548193 9.88881712 15.89490682 7.8125 20.8125 C4.9338992 24.28667338 2.11935729 25.71322228 -2.3671875 26.3203125 C-8.58855933 26.60396167 -11.79045596 25.2299173 -17 22 C-19.95272412 22.37420662 -22.04375588 23.54472547 -24.5625 25.0625 C-29.59794852 27.63199055 -34.45602968 27.8561789 -40 27 C-43.5 25.1875 -43.5 25.1875 -46 23 C-46.598125 22.484375 -47.19625 21.96875 -47.8125 21.4375 C-50.30388292 18.42161542 -50.39341121 14.85371423 -50.3515625 11.06640625 C-49.71315462 7.31398662 -47.72210538 5.59837332 -45 3 C-40.51737939 0.27307246 -36.10435281 0.35909471 -31 1 C-23.74556213 3.50887574 -23.74556213 3.50887574 -22 7 C-21.960008 8.99960012 -21.95653201 11.00047242 -22 13 C-21.34 13 -20.68 13 -20 13 C-20.020625 12.154375 -20.04125 11.30875 -20.0625 10.4375 C-18.65210356 5.87445268 -16.42780034 4.10393554 -12.60546875 1.36328125 C-8.32839459 -0.87464811 -4.67640995 -0.9662004 0 0 Z " fill="#FAF2E6" transform="translate(142,209)"/>
<path d="M0 0 C4.66226112 2.72616386 8.16050695 6.16476391 10.59765625 11.0390625 C11.10495275 16.59437498 11.36026047 21.45736486 8.91015625 26.5390625 C3.80701941 32.05596719 -0.58707465 35.04392733 -8.15234375 35.4765625 C-13.82314383 35.34960429 -17.95783048 33.5130392 -22.40234375 30.0390625 C-26.61965169 24.87286027 -27.81585711 20.76374604 -27.66796875 14.12109375 C-26.94073141 8.42083639 -23.75901296 4.97778346 -19.40234375 1.6015625 C-13.36097041 -2.10089365 -6.6134048 -2.64536192 0 0 Z " fill="#4DC6D5" transform="translate(94.40234375,158.9609375)"/>
<path d="M0 0 C5.24449941 2.93368078 9.28286073 6.56572146 12 12 C12.55674965 17.95293853 12.54141118 22.97348091 9 28 C4.01830853 33.11405525 0.36740945 35.11431667 -6.8125 35.25 C-12.30683251 35.1612516 -16.65444875 34.29248448 -20.7265625 30.3125 C-25.58358144 24.78792869 -26.36183978 21.37973919 -26.2734375 13.98046875 C-25.901135 9.92237154 -24.80150516 7.94517209 -22 5 C-21.57203125 4.51660156 -21.1440625 4.03320312 -20.703125 3.53515625 C-15.13247011 -1.64784998 -7.11088241 -1.11227395 0 0 Z " fill="#4EC8D8" transform="translate(162,160)"/>
<path d="M0 0 C1.82172784 2.2771598 3.25329338 4.4773606 4.625 7.0625 C7.6734737 12.55935416 11.95592321 17.22142209 16 22 C19.11881279 21.39175924 19.11881279 21.39175924 21.5 19.375 C21.995 18.92125 22.49 18.4675 23 18 C26.47970268 18.23198018 29.11502066 20.15681876 32 22 C34.64 20.02 37.28 18.04 40 16 C40 17.32 40 18.64 40 20 C40.495 21.485 40.495 21.485 41 23 C40.96923391 24.93826364 40.90262231 26.87608825 40.8125 28.8125 C40.77418685 34.10610082 41.29015111 36.98935255 45 41 C50.23691574 45.84414706 54.53759571 46.31286624 61.46875 46.2109375 C66.72188076 45.7731766 70.44999616 43.92265397 73.875 40 C77.4895676 34.89708104 77.68322799 30.082627 77 24 C74.50665497 19.01330993 71.00649051 15.50324526 66 13 C63.54709172 12.8490518 61.14141991 12.76871436 58.6875 12.75 C57.37136719 12.72421875 56.05523437 12.6984375 54.69921875 12.671875 C50.89226164 13.00955652 49.04063948 13.76510058 46 16 C46.33 14.35 46.66 12.7 47 11 C55.23561651 8.2547945 61.64935186 8.18691111 69.6640625 11.6640625 C74.20353853 14.26021769 76.79859944 17.92485357 79.375 22.375 C80.920661 28.8667762 80.56709218 34.34776499 77.2734375 40.2109375 C74.42163793 44.21745346 70.5668099 47.17167925 66 49 C58.54852278 49.87178613 51.70777937 50.08985875 45.546875 45.4296875 C41.29684143 41.50162617 38.15888448 37.63112698 37.8046875 31.765625 C37.82789063 30.60546875 37.85109375 29.4453125 37.875 28.25 C37.89304687 27.07953125 37.91109375 25.9090625 37.9296875 24.703125 C37.95289063 23.81109375 37.97609375 22.9190625 38 22 C36.02 23.32 34.04 24.64 32 26 C29.04590299 24.62845496 26.55991624 23.01136276 24 21 C23.5359375 21.9590625 23.5359375 21.9590625 23.0625 22.9375 C22 25 22 25 21 26 C17.39251163 26.50104005 16.2154253 26.15319133 13.1875 24 C12.465625 23.34 11.74375 22.68 11 22 C11.05800781 22.7734375 11.11601563 23.546875 11.17578125 24.34375 C11.44520851 30.5636707 11.37627655 35.18789104 7.62890625 40.3125 C2.6720817 45.4476276 -2.71602183 47.78106812 -9.75 48.25 C-15.30928606 48.12623111 -19.83691301 47.00159916 -23.98828125 43.16015625 C-28.98937658 37.59993225 -31.13373349 33.50764311 -32 26 C-33.73361924 28.71558321 -33.73361924 28.71558321 -35 32 C-32.97709729 38.81340309 -28.14518769 45.57478207 -22.5625 49.9375 C-21.716875 50.618125 -20.87125 51.29875 -20 52 C-20 52.99 -20 53.98 -20 55 C-22.88834003 57.10770759 -24.38462395 58 -28 58 C-28 58.66 -28 59.32 -28 60 C-27.28070313 60.268125 -26.56140625 60.53625 -25.8203125 60.8125 C-22.98991942 62.00424446 -20.49282165 63.39888584 -17.875 65 C-17.02679688 65.515625 -16.17859375 66.03125 -15.3046875 66.5625 C-13.5169104 67.67758809 -11.75315355 68.83123097 -10 70 C-11.63671875 71.15625 -11.63671875 71.15625 -14 72 C-21.23964029 69.63103449 -27.64567407 65.35432593 -33 60 C-33 59.34 -33 58.68 -33 58 C-33.9075 58.0825 -34.815 58.165 -35.75 58.25 C-39 58 -39 58 -41.375 56 C-41.91125 55.34 -42.4475 54.68 -43 54 C-42.38125 54.165 -41.7625 54.33 -41.125 54.5 C-35.44095146 55.40944777 -29.56334284 55.61889422 -24 54 C-24 53.34 -24 52.68 -24 52 C-24.58652344 51.75765625 -25.17304687 51.5153125 -25.77734375 51.265625 C-31.26292649 48.14202428 -35.92583598 40.83358631 -38 35 C-38 28.94197312 -34.58151816 23.35355426 -32 18 C-31.67 18.99 -31.34 19.98 -31 21 C-30.01 21 -29.02 21 -28 21 C-28.03480469 21.64066406 -28.06960937 22.28132813 -28.10546875 22.94140625 C-28.29119356 28.87575616 -27.69458669 32.71861009 -25 38 C-24.67 38.99 -24.34 39.98 -24 41 C-21.6569191 42.12085312 -21.6569191 42.12085312 -19 43 C-18.38253906 43.34160156 -17.76507813 43.68320313 -17.12890625 44.03515625 C-12.63537313 46.07167493 -7.35538285 45.74359356 -2.7109375 44.27734375 C2.29730547 41.96079691 5.49911367 39.00177266 8 34 C8.49813129 28.54505412 8.71117027 23.62976519 6.5 18.5625 C1.49438683 13.4317465 -2.61246412 10.713744 -9.9375 10.3125 C-17.22819612 10.59895321 -21.96779901 13.96779901 -27 19 C-27.33 17.68 -27.66 16.36 -28 15 C-26.33779419 13.99260254 -24.66979326 12.99477045 -23 12 C-21.96875 11.278125 -20.9375 10.55625 -19.875 9.8125 C-15.16453196 7.13843517 -10.25944706 7.33005579 -5 8 C-2.4293496 8.77696687 -0.38386107 9.72860743 2 11 C0.35 8.03 -1.3 5.06 -3 2 C-2.34 2 -1.68 2 -1 2 C-0.67 1.34 -0.34 0.68 0 0 Z " fill="#090E0C" transform="translate(96,148)"/>
<path d="M0 0 C4.66759511 2.11362798 7.53761564 5.2122557 10.08984375 9.578125 C12.03287549 14.74842404 12.10924132 21.04890217 10.16015625 26.234375 C9 28 9 28 6 30 C1.04048703 30.99190259 -3.28212339 31.06766411 -7.65234375 28.3515625 C-11.98950072 24.56973033 -15.62207179 21.29337438 -16.30078125 15.37890625 C-16.3404908 5.83537832 -16.3404908 5.83537832 -13 2 C-8.72890323 -0.84739785 -5.01112027 -0.61073028 0 0 Z " fill="#C6B1A9" transform="translate(188,108)"/>
<path d="M0 0 C11.34282327 -0.66433021 22.00087973 1.71339889 31 9 C35.04672901 14.62045696 34.58006027 19.21654383 33.56640625 25.828125 C32.07497505 32.90547553 29.3210426 38.43116962 25.42578125 44.50390625 C23.75200371 46.95506306 23.75200371 46.95506306 24 50 C25.65 50.33 27.3 50.66 29 51 C24.9885064 55.39970265 20.41166899 59.42485876 15 62 C12.72265625 61.6640625 12.72265625 61.6640625 11 61 C10.67 59.68 10.34 58.36 10 57 C9.34 57 8.68 57 8 57 C8 53.7 8 50.4 8 47 C10.31 46.34 12.62 45.68 15 45 C15 44.34 15 43.68 15 43 C16.609375 41.921875 16.609375 41.921875 18.75 40.75 C23.64237274 37.82323542 26.18792104 34.43623689 28 29 C28.78647182 22.46325878 27.76555887 17.43228165 24 12 C19.42545141 7.29838062 13.40949539 4.87491383 6.875 4.6875 C3.23176155 4.98130955 0.37950117 5.64819953 -3 7 C-1.125 2.25 -1.125 2.25 0 0 Z " fill="#EFECE3" transform="translate(147,153)"/>
<path d="M0 0 C0.66 0.33 1.32 0.66 2 1 C1.52949219 2.00417969 1.05898437 3.00835937 0.57421875 4.04296875 C-6.31519437 19.04289043 -10.45541037 33.25591994 -6.4375 49.74609375 C-5.95578905 52.22776533 -5.86156417 54.47787223 -6 57 C-6.33 57.33 -6.66 57.66 -7 58 C-5.68 59.98 -4.36 61.96 -3 64 C-3.33 64.66 -3.66 65.32 -4 66 C-4.928125 65.505 -5.85625 65.01 -6.8125 64.5 C-11.78294137 62.40718258 -16.69778514 62.15438815 -22 63 C-24.31209839 64.07512575 -26.2174604 65.27068812 -28.24609375 66.80859375 C-30.15577905 68.10581873 -31.74748614 68.56929955 -34 69 C-33.67 70.65 -33.34 72.3 -33 74 C-34.98 74.495 -34.98 74.495 -37 75 C-37.56495038 66.54061136 -30.79090634 59.57094649 -26.125 52.9375 C-25.69703125 52.32801514 -25.2690625 51.71853027 -24.828125 51.09057617 C-22.34299802 47.63095381 -19.7643346 44.77419893 -16.625 41.875 C-11.99783731 36.93381829 -11.55398823 31.12181888 -10.51074219 24.67553711 C-8.92736471 15.33621993 -5.25390135 7.88085202 0 0 Z " fill="#0D0908" transform="translate(102,94)"/>
<path d="M0 0 C4.77790244 4.64394256 7.15330953 8.01372941 7.3125 14.75 C7.26196419 20.03099209 6.69408863 23.00639067 3 27 C0.18126919 29.607326 -2.1042258 31.62298959 -6 32 C-8.25 31.5625 -8.25 31.5625 -10 31 C-10 30.34 -10 29.68 -10 29 C-9.01 28.67 -8.02 28.34 -7 28 C-7 27.01 -7 26.02 -7 25 C-7.33 25.66 -7.66 26.32 -8 27 C-9.32 26.67 -10.64 26.34 -12 26 C-11.01 26 -10.02 26 -9 26 C-8.95875 24.9275 -8.9175 23.855 -8.875 22.75 C-8 19 -8 19 -4.9375 16.5625 C-3.968125 16.046875 -2.99875 15.53125 -2 15 C-2.33 13.68 -2.66 12.36 -3 11 C-5.97 10.505 -5.97 10.505 -9 10 C-9.66 7.36 -10.32 4.72 -11 2 C-12.65 2 -14.3 2 -16 2 C-14.08078199 -0.59658908 -12.89219704 -1.02644224 -9.6875 -1.8125 C-5.65178155 -2.01770602 -3.59373795 -1.83510023 0 0 Z " fill="#4CC9DA" transform="translate(98,161)"/>
<path d="M0 0 C-0.66 0.66 -1.32 1.32 -2 2 C-3.66452096 6.06882903 -4.68268033 9.61134076 -4 14 C-3.21625 14.45375 -2.4325 14.9075 -1.625 15.375 C1.42826148 17.26511425 1.51025504 17.84383671 2.3125 21.1875 C2.6528125 23.0746875 2.6528125 23.0746875 3 25 C5.64 25.66 8.28 26.32 11 27 C10.01 29.475 10.01 29.475 9 32 C3.15856311 32.30744405 -0.78397085 31.99438711 -6 29 C-10.78148457 24.34774474 -13.1530022 20.99927535 -13.3125 14.25 C-13.25808551 7.75912834 -11.63126791 4.63126791 -7.0625 0.0625 C-4.34645838 -1.33667296 -2.85990679 -0.87386041 0 0 Z " fill="#4DCADA" transform="translate(149,163)"/>
<path d="M0 0 C0.33 0 0.66 0 1 0 C1.01417969 0.556875 1.02835937 1.11375 1.04296875 1.6875 C1.51261203 9.20179255 4.06079695 14.13616113 9.4375 19.375 C12.21010092 21.13323473 14.8843497 22.00865672 18 23 C18.33 23.66 18.66 24.32 19 25 C21.52733235 25.65555119 21.52733235 25.65555119 24 26 C24.1953125 32.0546875 24.1953125 32.0546875 24 34 C23.34 34.66 22.68 35.32 22 36 C22 33.36 22 30.72 22 28 C21.34 28 20.68 28 20 28 C19.97421875 28.60328125 19.9484375 29.2065625 19.921875 29.828125 C19.45283019 36.4373928 19.45283019 36.4373928 16.9375 39.5625 C16.298125 40.036875 15.65875 40.51125 15 41 C14.37351562 40.6390625 13.74703125 40.278125 13.1015625 39.90625 C12.28429687 39.4421875 11.46703125 38.978125 10.625 38.5 C9.81289062 38.0359375 9.00078125 37.571875 8.1640625 37.09375 C6.10663126 35.84964141 6.10663126 35.84964141 4 36 C4 35.34 4 34.68 4 34 C9.75 31 9.75 31 12 31 C10.5014433 28.23950082 9.07427272 26.07215064 6.8125 23.875 C4.15492501 21.29124654 1.85013218 18.47725893 -0.4375 15.5625 C-1.15808594 14.65628906 -1.87867188 13.75007812 -2.62109375 12.81640625 C-4 10 -4 10 -3.29296875 6.80078125 C-1.07541899 1.9972067 -1.07541899 1.9972067 0 0 Z " fill="#F6E3D0" transform="translate(64,172)"/>
<path d="M0 0 C0.99 0.33 1.98 0.66 3 1 C1.87548273 3.9719385 0.77706209 6.33440687 -1 9 C-1 9.99 -1 10.98 -1 12 C1.475 12.495 1.475 12.495 4 13 C-0.0114936 17.39970265 -4.58833101 21.42485876 -10 24 C-12.27734375 23.6640625 -12.27734375 23.6640625 -14 23 C-14.33 21.68 -14.66 20.36 -15 19 C-15.66 19 -16.32 19 -17 19 C-17 15.7 -17 12.4 -17 9 C-14.69 8.34 -12.38 7.68 -10 7 C-10 6.34 -10 5.68 -10 5 C-8.906875 4.731875 -7.81375 4.46375 -6.6875 4.1875 C-3.38307337 3.12336261 -2.05039578 2.65345336 0 0 Z " fill="#F4E2D1" transform="translate(172,191)"/>
<path d="M0 0 C0.99 0 1.98 0 3 0 C6 5.625 6 5.625 6 9 C8.475 9.495 8.475 9.495 11 10 C11.625 12.375 11.625 12.375 12 15 C10 17 10 17 6.875 17.125 C5.451875 17.063125 5.451875 17.063125 4 17 C4 18.32 4 19.64 4 21 C3.34 21 2.68 21 2 21 C1.67 21.99 1.34 22.98 1 24 C0.01 23.67 -0.98 23.34 -2 23 C-2.28875 22.05125 -2.5775 21.1025 -2.875 20.125 C-4.24696057 16.31399842 -5.58525701 15.92626528 -9 14 C-10 12 -10 12 -10 10 C-8.53389045 7.99374483 -7.27302126 7.1194468 -5 6.125 C-2.75186299 5.07902445 -2.75186299 5.07902445 -1.4375 2.375 C-0.963125 1.59125 -0.48875 0.8075 0 0 Z " fill="#F1F2BD" transform="translate(154,164)"/>
<path d="M0 0 C0.33 0.99 0.66 1.98 1 3 C1.99 3 2.98 3 4 3 C4 3.66 4 4.32 4 5 C3.01 5 2.02 5 1 5 C0.26998417 6.3846168 -0.43324582 7.78337645 -1.125 9.1875 C-1.71667969 10.35345703 -1.71667969 10.35345703 -2.3203125 11.54296875 C-3.21963293 14.79396044 -2.55268611 16.04622139 -1 19 C1.91985635 23.81625789 4.96770626 28.44447829 9.4375 31.9375 C10.283125 32.618125 11.12875 33.29875 12 34 C12 34.99 12 35.98 12 37 C9.11165997 39.10770759 7.61537605 40 4 40 C4 40.66 4 41.32 4 42 C4.71929687 42.268125 5.43859375 42.53625 6.1796875 42.8125 C9.01008058 44.00424446 11.50717835 45.39888584 14.125 47 C14.97320312 47.515625 15.82140625 48.03125 16.6953125 48.5625 C18.4830896 49.67758809 20.24684645 50.83123097 22 52 C20.36328125 53.15625 20.36328125 53.15625 18 54 C10.76035971 51.63103449 4.35432593 47.35432593 -1 42 C-1 41.34 -1 40.68 -1 40 C-1.9075 40.0825 -2.815 40.165 -3.75 40.25 C-7 40 -7 40 -9.375 38 C-9.91125 37.34 -10.4475 36.68 -11 36 C-10.38125 36.165 -9.7625 36.33 -9.125 36.5 C-3.44095146 37.40944777 2.43665716 37.61889422 8 36 C8 35.34 8 34.68 8 34 C7.41347656 33.75765625 6.82695313 33.5153125 6.22265625 33.265625 C0.73707351 30.14202428 -3.92583598 22.83358631 -6 17 C-6 10.94197312 -2.58151816 5.35355426 0 0 Z " fill="#191412" transform="translate(64,166)"/>
<path d="M0 0 C2.86564686 0.18488044 3.81237165 0.79226861 5.75 2.9375 C7 5 7 5 7 7 C8.423125 6.938125 8.423125 6.938125 9.875 6.875 C13 7 13 7 15 9 C14.9375 10.9375 14.9375 10.9375 14 13 C12.7934375 13.6496875 12.7934375 13.6496875 11.5625 14.3125 C8.03292662 16.6368532 7.83460426 18.97872491 7 23 C5.125 22.75 5.125 22.75 3 22 C2.731875 21.360625 2.46375 20.72125 2.1875 20.0625 C1.05610979 17.57546681 1.05610979 17.57546681 -2.625 16.75 C-3.73875 16.5025 -4.8525 16.255 -6 16 C-6.6875 13.6875 -6.6875 13.6875 -7 11 C-5.6875 9.1875 -5.6875 9.1875 -4 8 C-3.34 8 -2.68 8 -2 8 C-2.04125 7.05125 -2.0825 6.1025 -2.125 5.125 C-2 2 -2 2 0 0 Z " fill="#ECF2C1" transform="translate(82,164)"/>
<path d="M0 0 C5.4752731 2.40143557 7.49283845 5.79281833 10 11 C10 11.66 10 12.32 10 13 C9.01 13 8.02 13 7 13 C6.62875 12.071875 6.2575 11.14375 5.875 10.1875 C3.57588905 6.27901138 2.29211292 5.4046915 -2 4 C-7.58983246 3.07304286 -11.76920208 3.34784726 -16.5 6.625 C-19.73516565 9.36445479 -21.19160546 11.75592869 -22 16 C-22.66 16 -23.32 16 -24 16 C-24.33 13.36 -24.66 10.72 -25 8 C-31.242697 5.46917689 -36.23958297 4.23945308 -43 5 C-47.43638994 7.2600477 -50.59552993 10.39526698 -54 14 C-54.66 13.34 -55.32 12.68 -56 12 C-55.34 12 -54.68 12 -54 12 C-53.9071875 10.88625 -53.9071875 10.88625 -53.8125 9.75 C-52.58099617 5.58183319 -49.78222205 4.05571115 -46.16015625 1.91015625 C-41.32655944 -0.12642251 -35.47202343 0.20345912 -30.5390625 1.79296875 C-28.51935684 2.74449073 -26.74425224 3.60553096 -25 5 C-24.67 5.99 -24.34 6.98 -24 8 C-23.34 8 -22.68 8 -22 8 C-21.67 7.01 -21.34 6.02 -21 5 C-15.12162773 -0.86185999 -7.85533589 -1.08561356 0 0 Z " fill="#191817" transform="translate(144,206)"/>
<path d="M0 0 C4.39048296 3.81231236 7.52836908 8.17536798 8.25 14.02734375 C8.56830829 19.84641711 7.3897003 24.23778301 4 29 C0.23656699 32.96468612 -3.70635845 35.73165524 -9.171875 36.37109375 C-16.78999432 36.51247806 -22.25611803 36.30873939 -28 31 C-33.03293799 25.5697248 -34.30532573 21.58787026 -34.125 14.25 C-34.11597656 13.55261719 -34.10695312 12.85523438 -34.09765625 12.13671875 C-34.07419888 10.42433042 -34.03833104 8.71211996 -34 7 C-33.34 7 -32.68 7 -32 7 C-30.91272026 10.26183922 -31.02867397 12.39988675 -31.1875 15.8125 C-31.22581315 21.10610082 -30.70984889 23.98935255 -27 28 C-21.76308426 32.84414706 -17.46240429 33.31286624 -10.53125 33.2109375 C-5.27811924 32.7731766 -1.55000384 30.92265397 1.875 27 C5.4895676 21.89708104 5.68322799 17.082627 5 11 C2.50665497 6.01330993 -0.99350949 2.50324526 -6 0 C-8.45290828 -0.1509482 -10.85858009 -0.23128564 -13.3125 -0.25 C-14.62863281 -0.27578125 -15.94476563 -0.3015625 -17.30078125 -0.328125 C-21.10773836 0.00955652 -22.95936052 0.76510058 -26 3 C-25.67 1.35 -25.34 -0.3 -25 -2 C-15.89356639 -5.03547787 -8.45742001 -4.83685225 0 0 Z " fill="#0F2321" transform="translate(168,161)"/>
<path d="M0 0 C2.63512948 1.10581326 4.63382847 2.35396763 7 4 C6.67 5.65 6.34 7.3 6 9 C4.68 9 3.36 9 2 9 C2 9.66 2 10.32 2 11 C-5.02639415 11.74805717 -11.93391809 12.13794954 -19 12 C-19.33 12.66 -19.66 13.32 -20 14 C-20.08031674 10.06447971 -19.86628176 8.01984989 -17.28125 4.9765625 C-11.82417538 0.26887489 -7.14812733 -1.54013928 0 0 Z " fill="#CFEEED" transform="translate(142,209)"/>
<path d="M0 0 C3.77406358 2.83221763 6.72201056 5.83467519 9.6875 9.5 C10.45449219 10.4384375 11.22148437 11.376875 12.01171875 12.34375 C13.65064704 14.53328092 14.90213669 16.51072703 16 19 C15.29875 18.79503906 14.5975 18.59007812 13.875 18.37890625 C8.23146391 16.77632603 2.84123457 15.55105987 -3 15 C-2.22225866 9.94468132 -1.14051606 4.98283716 0 0 Z " fill="#F5F1EA" transform="translate(154,133)"/>
<path d="M0 0 C0.66 0.33 1.32 0.66 2 1 C2.6112489 3.99285575 2.95967864 6.9892831 3.33984375 10.01953125 C4.02978336 13.13446571 5.00369663 14.57941417 7 17 C7 17.66 7 18.32 7 19 C8.11375 19.433125 8.11375 19.433125 9.25 19.875 C12 21 12 21 13.875 22.046875 C18.37421901 24.06490706 23.6454226 23.74333928 28.2890625 22.27734375 C33.29730547 19.96079691 36.49911367 17.00177266 39 12 C39.27358115 9.14693938 39.44625242 6.29429544 39.62109375 3.43359375 C39.80865234 2.22896484 39.80865234 2.22896484 40 1 C40.66 0.67 41.32 0.34 42 0 C42.5154436 6.87258138 42.82236025 12.57786206 38.62890625 18.3125 C33.6720817 23.4476276 28.28397817 25.78106812 21.25 26.25 C15.69071394 26.12623111 11.16308699 25.00159916 7.01171875 21.16015625 C2.64012864 16.29981694 -0.09156757 12.42637298 -0.6875 5.8125 C-0.77386719 4.93207031 -0.86023438 4.05164063 -0.94921875 3.14453125 C-0.96597656 2.43683594 -0.98273438 1.72914063 -1 1 C-0.67 0.67 -0.34 0.34 0 0 Z " fill="#10201F" transform="translate(65,170)"/>
<path d="M0 0 C0.66 0 1.32 0 2 0 C6.87759879 6.20677413 5.59086943 14.94478378 4.71875 22.40625 C3.70829387 27.14762105 1.47063283 31.35572645 -0.78125 35.60546875 C-2.0121199 38.0238125 -3.02848053 40.4677525 -4 43 C-3.34 43.33 -2.68 43.66 -2 44 C-3.65 44 -5.3 44 -7 44 C-7.703125 42.34375 -7.703125 42.34375 -8 40 C-6.671875 37.40625 -6.671875 37.40625 -4.75 34.5 C0.24869149 26.30853151 3.49620655 16.72534257 2 7 C0.65253476 3.54653852 0.65253476 3.54653852 -1 1 C-0.67 0.67 -0.34 0.34 0 0 Z " fill="#1C1613" transform="translate(178,160)"/>
<path d="M0 0 C0 4.29 0 8.58 0 13 C0.66 13.33 1.32 13.66 2 14 C0.25 15.5625 0.25 15.5625 -2 17 C-4.25 16.6875 -4.25 16.6875 -6 16 C-6.33 14.68 -6.66 13.36 -7 12 C-7.66 12 -8.32 12 -9 12 C-9 8.7 -9 5.4 -9 2 C-5.74825607 0.59384046 -3.5554083 0 0 0 Z " fill="#F3D6C3" transform="translate(164,198)"/>
<path d="M0 0 C2.39812384 2.16639502 3.44403412 4.09553035 5 7 C4.67 7.66 4.34 8.32 4 9 C3.071875 8.505 2.14375 8.01 1.1875 7.5 C-3.78029897 5.40829517 -8.70082287 5.1484823 -14 6 C-16.34469759 7.10882251 -18.28466641 8.33576252 -20.34375 9.90625 C-22 11 -22 11 -25 11 C-23.26623024 7.15833121 -21.58825838 3.86300057 -17.79296875 1.80078125 C-12.25593802 0.0132359 -5.73406268 -1.48172239 0 0 Z " fill="#F8F4EB" transform="translate(94,151)"/>
<path d="M0 0 C0.69480469 0.16371094 1.38960937 0.32742187 2.10546875 0.49609375 C5.2352816 1.04095996 8.13798083 1.09738483 11.3125 1.0625 C12.38113281 1.05347656 13.44976562 1.04445312 14.55078125 1.03515625 C15.76314453 1.01775391 15.76314453 1.01775391 17 1 C17 1.99 17 2.98 17 4 C16.34 4 15.68 4 15 4 C15 4.66 15 5.32 15 6 C15.71929687 6.268125 16.43859375 6.53625 17.1796875 6.8125 C20.01008058 8.00424446 22.50717835 9.39888584 25.125 11 C25.97320312 11.515625 26.82140625 12.03125 27.6953125 12.5625 C29.4830896 13.67758809 31.24684645 14.83123097 33 16 C31.36328125 17.15625 31.36328125 17.15625 29 18 C21.76035971 15.63103449 15.35432593 11.35432593 10 6 C10 5.34 10 4.68 10 4 C9.0925 4.0825 8.185 4.165 7.25 4.25 C4 4 4 4 1.625 2 C0.820625 1.01 0.820625 1.01 0 0 Z " fill="#110907" transform="translate(53,202)"/>
<path d="M0 0 C2.13750202 0.93153343 3.83056509 1.79384729 5.59765625 3.31640625 C6.59765625 6.56640625 6.59765625 6.56640625 6.59765625 9.31640625 C4.09268621 10.56889127 2.38912351 10.43015031 -0.41015625 10.4140625 C-1.39628906 10.41083984 -2.38242188 10.40761719 -3.3984375 10.40429688 C-4.43097656 10.39591797 -5.46351562 10.38753906 -6.52734375 10.37890625 C-8.08775391 10.37213867 -8.08775391 10.37213867 -9.6796875 10.36523438 C-12.25396337 10.35342577 -14.82812521 10.336957 -17.40234375 10.31640625 C-17.40234375 9.32640625 -17.40234375 8.33640625 -17.40234375 7.31640625 C-16.74234375 7.64640625 -16.08234375 7.97640625 -15.40234375 8.31640625 C-13.95581955 8.46707839 -12.50355035 8.56501661 -11.05078125 8.6328125 C-10.2 8.67470703 -9.34921875 8.71660156 -8.47265625 8.75976562 C-7.58320312 8.79908203 -6.69375 8.83839844 -5.77734375 8.87890625 C-4.4315625 8.94368164 -4.4315625 8.94368164 -3.05859375 9.00976562 C-0.84000092 9.11597486 1.37870505 9.21801819 3.59765625 9.31640625 C3.59765625 7.99640625 3.59765625 6.67640625 3.59765625 5.31640625 C-2.67234375 4.65640625 -8.94234375 3.99640625 -15.40234375 3.31640625 C-15.07234375 2.32640625 -14.74234375 1.33640625 -14.40234375 0.31640625 C-10.086808 -1.84136163 -4.53941757 -1.29170419 0 0 Z " fill="#EFF8F4" transform="translate(113.40234375,210.68359375)"/>
<path d="M0 0 C1.22589844 0.15275391 1.22589844 0.15275391 2.4765625 0.30859375 C3.41628906 0.43427734 3.41628906 0.43427734 4.375 0.5625 C4.375 1.2225 4.375 1.8825 4.375 2.5625 C5.365 2.5625 6.355 2.5625 7.375 2.5625 C7.375 3.8825 7.375 5.2025 7.375 6.5625 C8.365 6.8925 9.355 7.2225 10.375 7.5625 C10.375 8.5525 10.375 9.5425 10.375 10.5625 C11.81250191 12.25048827 11.81250191 12.25048827 13.375 13.5625 C10.9 13.0675 10.9 13.0675 8.375 12.5625 C7.385 9.5925 6.395 6.6225 5.375 3.5625 C2.10755844 4.30191137 2.10755844 4.30191137 0.5 7.5 C-1.74909706 10.74134577 -2.90985832 11.5305162 -6.625 12.5625 C-7.625 9.5625 -7.625 9.5625 -6.1875 6.375 C-5.671875 5.446875 -5.15625 4.51875 -4.625 3.5625 C-5.285 2.5725 -5.945 1.5825 -6.625 0.5625 C-4.10446405 -0.69776798 -2.7707902 -0.35624445 0 0 Z " fill="#54C4D0" transform="translate(151.625,160.4375)"/>
<path d="M0 0 C3.11875698 0.15993626 4.57800441 0.60613745 6.875 2.75 C8.30769581 5.61539161 7.97242524 7.00168883 7 10 C6 11 6 11 2.4375 11.0625 C1.303125 11.041875 0.16875 11.02125 -1 11 C-2.55136786 8.53606281 -3.03039129 7.31910854 -2.75 4.375 C-2 2 -2 2 0 0 Z " fill="#C7B0A8" transform="translate(136,119)"/>
<path d="M0 0 C7.09727428 -0.10808032 13.96094956 0.06145994 21 1 C21 2.32 21 3.64 21 5 C17.87501937 5.02895976 14.7500731 5.04678483 11.625 5.0625 C10.73554687 5.07087891 9.84609375 5.07925781 8.9296875 5.08789062 C7.65351562 5.09272461 7.65351562 5.09272461 6.3515625 5.09765625 C5.17327881 5.10551147 5.17327881 5.10551147 3.97119141 5.11352539 C2 5 2 5 0 4 C0 2.68 0 1.36 0 0 Z " fill="#59C4CF" transform="translate(96,215)"/>
<path d="M0 0 C4.97325487 2.21751191 8.69229515 5.83058725 10.79296875 10.921875 C11.93349603 15.20957154 12.3712486 19.60725426 12.75390625 24.01953125 C12.9598085 26.20747595 12.9598085 26.20747595 14 29 C13.34 29 12.68 29 12 29 C12 31.31 12 33.62 12 36 C11.34 36 10.68 36 10 36 C9.96036133 35.410979 9.92072266 34.82195801 9.87988281 34.21508789 C9.68705369 31.49603749 9.46867918 28.77958885 9.25 26.0625 C9.188125 25.13630859 9.12625 24.21011719 9.0625 23.25585938 C8.30158031 14.21993805 5.24896984 7.31106514 0 0 Z " fill="#0F0907" transform="translate(141,103)"/>
<path d="M0 0 C0.89589844 0.00322266 1.79179687 0.00644531 2.71484375 0.00976562 C4.12056641 0.02233398 4.12056641 0.02233398 5.5546875 0.03515625 C6.49957031 0.03966797 7.44445312 0.04417969 8.41796875 0.04882812 C10.75527137 0.06063268 13.09244811 0.07709866 15.4296875 0.09765625 C14.4296875 3.09765625 14.4296875 3.09765625 12.4296875 4.09765625 C11.056224 4.24770598 9.6768349 4.34603631 8.296875 4.4140625 C7.49121094 4.45595703 6.68554688 4.49785156 5.85546875 4.54101562 C5.01371094 4.58033203 4.17195312 4.61964844 3.3046875 4.66015625 C2.45519531 4.70333984 1.60570312 4.74652344 0.73046875 4.79101562 C-1.36959473 4.89719861 -3.46993198 4.99794122 -5.5703125 5.09765625 C-5.9003125 3.77765625 -6.2303125 2.45765625 -6.5703125 1.09765625 C-4.16971433 -0.10264283 -2.67670601 -0.01694118 0 0 Z " fill="#59C3CF" transform="translate(131.5703125,214.90234375)"/>
<path d="M0 0 C0 3.21534057 -0.26476072 4.35582586 -2 7 C-4.375 8.875 -4.375 8.875 -7 10 C-10.10383385 9.05944429 -12.46409829 6.9924942 -15 5 C-15.309375 5.639375 -15.61875 6.27875 -15.9375 6.9375 C-17 9 -17 9 -18 10 C-20.4375 10.25 -20.4375 10.25 -23 10 C-23.66 9.01 -24.32 8.02 -25 7 C-24.071875 6.731875 -23.14375 6.46375 -22.1875 6.1875 C-19.02735393 5.27205339 -19.02735393 5.27205339 -17.375 3.3125 C-16.92125 2.879375 -16.4675 2.44625 -16 2 C-12.52029732 2.23198018 -9.88497934 4.15681876 -7 6 C-4.69 4.02 -2.38 2.04 0 0 Z " fill="#17110D" transform="translate(135,164)"/>
<path d="M0 0 C0.33 0.99 0.66 1.98 1 3 C0.01 3.66 -0.98 4.32 -2 5 C-2.72382467 7.05925139 -2.72382467 7.05925139 -3 9 C-1.68 8.34 -0.36 7.68 1 7 C1 8.32 1 9.64 1 11 C1.66 11.33 2.32 11.66 3 12 C2.34 12.66 1.68 13.32 1 14 C1 15.32 1 16.64 1 18 C1.56589844 18.17015625 2.13179687 18.3403125 2.71484375 18.515625 C3.44832031 18.75796875 4.18179688 19.0003125 4.9375 19.25 C5.66839844 19.48203125 6.39929688 19.7140625 7.15234375 19.953125 C9 21 9 21 9.75390625 23.109375 C9.83511719 23.73328125 9.91632813 24.3571875 10 25 C9.34 25 8.68 25 8 25 C7.67 24.34 7.34 23.68 7 23 C3.37114676 22.84850702 3.37114676 22.84850702 0 24 C-0.13277344 23.39671875 -0.26554687 22.7934375 -0.40234375 22.171875 C-0.66724609 20.97304687 -0.66724609 20.97304687 -0.9375 19.75 C-1.11152344 18.96109375 -1.28554687 18.1721875 -1.46484375 17.359375 C-1.94756503 15.23117317 -2.46970391 13.11669032 -3 11 C-3.144375 10.278125 -3.28875 9.55625 -3.4375 8.8125 C-3.623125 8.214375 -3.80875 7.61625 -4 7 C-4.66 6.67 -5.32 6.34 -6 6 C-2.25 1.125 -2.25 1.125 0 0 Z " fill="#55C5CD" transform="translate(75,161)"/>
<path d="M0 0 C3.21556785 1.20257009 5.05883376 2.90463805 7.25 5.5 C7.84425781 6.20125 8.43851563 6.9025 9.05078125 7.625 C12.40913187 11.71693823 15.72123918 15.84406421 19 20 C17.02 20.99 17.02 20.99 15 22 C14.63261719 21.32582031 14.26523438 20.65164062 13.88671875 19.95703125 C11.50868766 16.22997217 8.71777358 13.01025694 5.8125 9.6875 C5.25369141 9.04232422 4.69488281 8.39714844 4.11914062 7.73242188 C2.74946151 6.1520229 1.37519035 4.57560569 0 3 C-0.66 4.32 -1.32 5.64 -2 7 C-2 5.02 -2 3.04 -2 1 C-1.34 0.67 -0.68 0.34 0 0 Z " fill="#1A1310" transform="translate(155,131)"/>
<path d="M0 0 C0.66 0 1.32 0 2 0 C2.33 3.96 2.66 7.92 3 12 C-0.63 12 -4.26 12 -8 12 C-6.46253702 8.92507403 -5.01989359 6.47685635 -3 3.75 C-2.484375 3.04359375 -1.96875 2.3371875 -1.4375 1.609375 C-0.963125 1.07828125 -0.48875 0.5471875 0 0 Z " fill="#E6E2DB" transform="translate(89,134)"/>
<path d="M0 0 C0.33 0 0.66 0 1 0 C1.03738281 0.56847656 1.07476562 1.13695312 1.11328125 1.72265625 C1.45236224 5.70519574 1.87908444 9.15980587 3.5625 12.8125 C5 16 5 16 5 20 C0.76292898 18.58764299 -0.53611839 16.02020473 -2.89453125 12.3515625 C-4 10 -4 10 -3.5 6.6875 C-3.005 5.800625 -2.51 4.91375 -2 4 C-1.62875 3.21625 -1.2575 2.4325 -0.875 1.625 C-0.58625 1.08875 -0.2975 0.5525 0 0 Z " fill="#F2ECE7" transform="translate(64,172)"/>
<path d="M0 0 C-0.33 1.32 -0.66 2.64 -1 4 C-1.9075 3.34 -2.815 2.68 -3.75 2 C-8.92614596 -0.91289186 -14.23201513 -1.01612169 -20 0 C-24.26824899 2.02310068 -27.67372785 4.67372785 -31 8 C-31.33 6.68 -31.66 5.36 -32 4 C-30.33779419 2.99260254 -28.66979326 1.99477045 -27 1 C-25.96875 0.278125 -24.9375 -0.44375 -23.875 -1.1875 C-16.34796735 -5.44190976 -7.52428523 -3.12118499 0 0 Z " fill="#0D191D" transform="translate(100,159)"/>
<path d="M0 0 C0 0.66 0 1.32 0 2 C-0.59167969 2.17015625 -1.18335937 2.3403125 -1.79296875 2.515625 C-8.75053119 4.64942881 -12.95036374 7.76334017 -18 13 C-18.66 12.34 -19.32 11.68 -20 11 C-19.34 11 -18.68 11 -18 11 C-17.9071875 9.88625 -17.9071875 9.88625 -17.8125 8.75 C-16.73864959 5.11542937 -15.10030499 4.09090337 -12 2 C-11.401875 1.5875 -10.80375 1.175 -10.1875 0.75 C-6.77955812 -0.41843722 -3.58866602 -0.1196222 0 0 Z " fill="#111110" transform="translate(108,207)"/>
<path d="M0 0 C2.64 0 5.28 0 8 0 C8.1953125 6.0546875 8.1953125 6.0546875 8 8 C7.34 8.66 6.68 9.32 6 10 C6 7.36 6 4.72 6 2 C5.34 2 4.68 2 4 2 C3.96261719 2.62648437 3.92523438 3.25296875 3.88671875 3.8984375 C3.82097656 4.71570313 3.75523438 5.53296875 3.6875 6.375 C3.62949219 7.18710938 3.57148437 7.99921875 3.51171875 8.8359375 C3 11 3 11 0 13 C-1.0161692 8.37078475 -0.83796731 4.65537393 0 0 Z " fill="#EFCDB9" transform="translate(80,198)"/>
<path d="M0 0 C0.66 0.33 1.32 0.66 2 1 C2.6112489 3.99285575 2.95967864 6.9892831 3.33984375 10.01953125 C4.02978336 13.13446571 5.00369663 14.57941417 7 17 C7 17.66 7 18.32 7 19 C7.7425 19.268125 8.485 19.53625 9.25 19.8125 C11.86636554 20.94229421 13.80187111 22.20893202 16 24 C15.01 24.33 14.02 24.66 13 25 C7.09706715 21.79188432 2.63299279 17.23483574 0 11 C-0.44921875 8.45703125 -0.44921875 8.45703125 -0.6875 5.8125 C-0.77386719 4.93207031 -0.86023438 4.05164063 -0.94921875 3.14453125 C-0.96597656 2.43683594 -0.98273438 1.72914063 -1 1 C-0.67 0.67 -0.34 0.34 0 0 Z " fill="#112327" transform="translate(65,170)"/>
<path d="M0 0 C1.96865614 2.73424464 2.01164806 3.92283159 1.5 7.3125 C-0.75055852 12.84512302 -3.85943959 16.45680528 -8.6875 19.9375 C-13.46312628 21.46930466 -18.0277662 21.23887956 -23 21 C-23 20.67 -23 20.34 -23 20 C-21.71416016 19.77957031 -21.71416016 19.77957031 -20.40234375 19.5546875 C-13.25147063 18.15192321 -7.67827892 16.85156157 -3 11 C-1.06709105 7.4856201 -0.55190311 3.95530563 0 0 Z " fill="#122223" transform="translate(174,176)"/>
<path d="M0 0 C4.62 2.31 9.24 4.62 14 7 C13.01 8.485 13.01 8.485 12 10 C6.547001 8.43181728 2.23513217 6.96189783 -2 3 C-1.34 3 -0.68 3 0 3 C0 2.01 0 1.02 0 0 Z " fill="#1D1513" transform="translate(72,210)"/>
<path d="M0 0 C0.85464844 -0.00515625 1.70929688 -0.0103125 2.58984375 -0.015625 C5.18224567 0.26286367 6.82764234 0.94330828 9.0625 2.25 C8.7325 2.91 8.4025 3.57 8.0625 4.25 C2.7825 4.25 -2.4975 4.25 -7.9375 4.25 C-7.9375 3.59 -7.9375 2.93 -7.9375 2.25 C-4.71002945 0.09835297 -3.73244361 -0.02245079 0 0 Z " fill="#F8F0E9" transform="translate(136.9375,208.75)"/>
<path d="M0 0 C0.33 0.66 0.66 1.32 1 2 C1.81984375 1.97679687 2.6396875 1.95359375 3.484375 1.9296875 C5.10085937 1.90261719 5.10085937 1.90261719 6.75 1.875 C8.35101563 1.84019531 8.35101563 1.84019531 9.984375 1.8046875 C13 2 13 2 17 4 C11.06 3.67 5.12 3.34 -1 3 C-1 3.99 -1 4.98 -1 6 C-1.66 6 -2.32 6 -3 6 C-2.67 9.3 -2.34 12.6 -2 16 C-2.66 16 -3.32 16 -4 16 C-5.6124054 12.77518921 -5.60679502 9.48584376 -5 6 C-3.56130936 3.60553585 -1.99797988 1.99797988 0 0 Z " fill="#CDE4E5" transform="translate(97,212)"/>
<path d="M0 0 C2.91517292 1.07401108 4.77810176 1.77810176 7 4 C6.01 4 5.02 4 4 4 C-0.53039719 4.73772647 -3.88129341 7.35410728 -7.66015625 9.8203125 C-8.43230469 10.20960937 -9.20445312 10.59890625 -10 11 C-10.99 10.67 -11.98 10.34 -13 10 C-11.71802734 9.04287109 -11.71802734 9.04287109 -10.41015625 8.06640625 C-9.29423934 7.23181293 -8.17835564 6.39717522 -7.0625 5.5625 C-6.21655273 4.93118164 -6.21655273 4.93118164 -5.35351562 4.28710938 C-2.57122778 2.26901433 -2.57122778 2.26901433 0 0 Z " fill="#140906" transform="translate(174,86)"/>
<path d="M0 0 C0.99 0.66 1.98 1.32 3 2 C0.73637306 4.26362694 -4.63971122 3.39175229 -7.703125 3.5234375 C-11.18019849 4.02604765 -13.15162778 4.99757291 -16 7 C-15.67 5.35 -15.34 3.7 -15 2 C-9.76325945 0.25441982 -5.5300954 -0.36867303 0 0 Z " fill="#2A4044" transform="translate(158,157)"/>
<path d="M0 0 C0.33 0 0.66 0 1 0 C2.125 6.625 2.125 6.625 1 10 C0.34 10 -0.32 10 -1 10 C-1.226875 10.556875 -1.45375 11.11375 -1.6875 11.6875 C-3.95600449 15.68438886 -6.61899946 18.53966649 -11 20 C-9.52026801 16.56795145 -7.53947007 14.34613729 -4.9375 11.6875 C-1.30119516 7.71583974 0 5.36094972 0 0 Z " fill="#140E0A" transform="translate(90,124)"/>
<path d="M0 0 C0.99 0 1.98 0 3 0 C6 5.75 6 5.75 6 8 C5.34 8 4.68 8 4 8 C3.67 6.35 3.34 4.7 3 3 C2.01 3 1.02 3 0 3 C-0.020625 3.763125 -0.04125 4.52625 -0.0625 5.3125 C-1 8 -1 8 -4.4375 9.6875 C-5.613125 10.120625 -6.78875 10.55375 -8 11 C-8.66 11.66 -9.32 12.32 -10 13 C-9.875 11.25 -9.875 11.25 -9 9 C-7.00669158 7.65668346 -5.00615134 6.32405988 -3 5 C-1.98343919 3.34338239 -0.97934924 1.67888441 0 0 Z " fill="#D2F4D1" transform="translate(154,164)"/>
<path d="M0 0 C7.39954511 -0.36391205 7.39954511 -0.36391205 10.0625 1.25 C11 3 11 3 11.0625 4.875 C9.39908751 8.20182499 6.99163358 9.80206512 4 12 C3.34 12 2.68 12 2 12 C1.67 12.66 1.34 13.32 1 14 C1.1875 11.6875 1.1875 11.6875 2 9 C4.5625 7.1875 4.5625 7.1875 7 6 C6.67 4.68 6.34 3.36 6 2 C3.03 1.505 3.03 1.505 0 1 C0 0.67 0 0.34 0 0 Z " fill="#61C6C6" transform="translate(89,170)"/>
<path d="M0 0 C4.42116304 1.35091093 6.48076658 3.13117725 9 7 C9.75 9.8125 9.75 9.8125 10 12 C9.01 12 8.02 12 7 12 C6.62875 11.071875 6.2575 10.14375 5.875 9.1875 C3.69057041 5.4739697 1.93281241 4.57312496 -2 3 C-1.34 2.67 -0.68 2.34 0 2 C0 1.34 0 0.68 0 0 Z " fill="#1F201E" transform="translate(144,207)"/>
<path d="M0 0 C-0.99 0 -1.98 0 -3 0 C-3 1.32 -3 2.64 -3 4 C-4.64453125 5.484375 -4.64453125 5.484375 -6.8125 6.75 C-7.87404297 7.39195312 -7.87404297 7.39195312 -8.95703125 8.046875 C-11 9 -11 9 -14 9 C-9.94172692 1.57422373 -9.94172692 1.57422373 -6.4375 -0.5625 C-3.89464595 -1.0189097 -2.40599517 -0.89110932 0 0 Z " fill="#DDDCD8" transform="translate(83,153)"/>
<path d="M0 0 C0.33 0.66 0.66 1.32 1 2 C0.51917969 2.55171875 0.03835937 3.1034375 -0.45703125 3.671875 C-2.23954161 6.36143493 -2.47751409 8.05821418 -2.6875 11.25 C-2.75324219 12.14203125 -2.81898437 13.0340625 -2.88671875 13.953125 C-2.92410156 14.62859375 -2.96148437 15.3040625 -3 16 C-3.66 16 -4.32 16 -5 16 C-5.07347656 14.84371094 -5.07347656 14.84371094 -5.1484375 13.6640625 C-5.22320312 12.66117188 -5.29796875 11.65828125 -5.375 10.625 C-5.44460937 9.62726563 -5.51421875 8.62953125 -5.5859375 7.6015625 C-5.76363964 4.84491121 -5.76363964 4.84491121 -8 3 C-5.36 2.01 -2.72 1.02 0 0 Z " fill="#E1D0C7" transform="translate(98,192)"/>
<path d="M0 0 C4.99911924 0.47610659 7.97832683 2.03162219 12 5 C11.67 6.32 11.34 7.64 11 9 C11 8.34 11 7.68 11 7 C7.41278829 5.43920222 4.041614 4.52509152 0.1875 3.875 C-0.78832031 3.70742187 -1.76414062 3.53984375 -2.76953125 3.3671875 C-3.50558594 3.24601563 -4.24164063 3.12484375 -5 3 C-5 2.67 -5 2.34 -5 2 C-3.35 2 -1.7 2 0 2 C0 1.34 0 0.68 0 0 Z " fill="#322E2A" transform="translate(108,207)"/>
<path d="M0 0 C0.99 0.33 1.98 0.66 3 1 C1.66666667 4.33333333 0.33333333 7.66666667 -1 11 C-0.34 11.33 0.32 11.66 1 12 C-0.65 12 -2.3 12 -4 12 C-4.65234375 10.265625 -4.65234375 10.265625 -5 8 C-4.00390625 5.859375 -4.00390625 5.859375 -2.5625 3.75 C-2.08941406 3.04359375 -1.61632812 2.3371875 -1.12890625 1.609375 C-0.75636719 1.07828125 -0.38382813 0.5471875 0 0 Z " fill="#17140F" transform="translate(175,192)"/>
<path d="M0 0 C0.66 0 1.32 0 2 0 C2 6.93 2 13.86 2 21 C1.34 21 0.68 21 0 21 C-1.125 13.25 -1.125 13.25 0 11 C0.07033769 9.12620395 0.0843022 7.24998898 0.0625 5.375 C0.05347656 4.37210937 0.04445313 3.36921875 0.03515625 2.3359375 C0.02355469 1.56507812 0.01195313 0.79421875 0 0 Z " fill="#050101" transform="translate(91,119)"/>
<path d="M0 0 C12.66970387 -0.738041 12.66970387 -0.738041 18 4 C17.34 5.32 16.68 6.64 16 8 C15.67 6.68 15.34 5.36 15 4 C13.68 4 12.36 4 11 4 C10.34 4.66 9.68 5.32 9 6 C9 5.01 9 4.02 9 3 C8.01 3 7.02 3 6 3 C6 2.34 6 1.68 6 1 C4.02 1 2.04 1 0 1 C0 0.67 0 0.34 0 0 Z " fill="#57D1DE" transform="translate(150,160)"/>
<path d="M0 0 C2 2 2 2 2.1953125 4.1640625 C2.17210937 4.97617188 2.14890625 5.78828125 2.125 6.625 C2.10695312 7.44226563 2.08890625 8.25953125 2.0703125 9.1015625 C2.03550781 10.04128906 2.03550781 10.04128906 2 11 C1.67 10.01 1.34 9.02 1 8 C0.01 8.495 0.01 8.495 -1 9 C-1.65555119 11.52733235 -1.65555119 11.52733235 -2 14 C-2.33 14 -2.66 14 -3 14 C-3.33 11.03 -3.66 8.06 -4 5 C-3.01 4.34 -2.02 3.68 -1 3 C-0.67 2.01 -0.34 1.02 0 0 Z " fill="#E7E5DD" transform="translate(179,165)"/>
<path d="M0 0 C0.66 0 1.32 0 2 0 C2.144375 1.093125 2.28875 2.18625 2.4375 3.3125 C2.88288104 6.93122987 2.88288104 6.93122987 4 10 C3.34 10 2.68 10 2 10 C2 12.31 2 14.62 2 17 C1.34 17 0.68 17 0 17 C0 11.39 0 5.78 0 0 Z " fill="#030101" transform="translate(151,122)"/>
<path d="M0 0 C0.99 0.33 1.98 0.66 3 1 C2.34 1 1.68 1 1 1 C0.87625 1.78375 0.7525 2.5675 0.625 3.375 C0 6 0 6 -2 8 C-4.5 8.3125 -4.5 8.3125 -7 8 C-7.66 7.01 -8.32 6.02 -9 5 C-8.071875 4.731875 -7.14375 4.46375 -6.1875 4.1875 C-3.23759634 3.08851629 -1.94384814 2.37581439 0 0 Z " fill="#221916" transform="translate(119,166)"/>
<path d="M0 0 C0.99 0 1.98 0 3 0 C3 0.66 3 1.32 3 2 C3.66 2 4.32 2 5 2 C5 3.98 5 5.96 5 8 C4.01 8 3.02 8 2 8 C1.67 7.01 1.34 6.02 1 5 C0.01 5.33 -0.98 5.66 -2 6 C-1.125 1.125 -1.125 1.125 0 0 Z " fill="#44CBDC" transform="translate(74,164)"/>
<path d="M0 0 C3.42561087 -0.41905531 6.59223158 -0.61912129 10 0 C12.43990832 2.13961191 13.43792489 4.08412645 15 7 C14.67 7.66 14.34 8.32 14 9 C11.69 8.01 9.38 7.02 7 6 C7.33 4.68 7.66 3.36 8 2 C5.36 1.67 2.72 1.34 0 1 C0 0.67 0 0.34 0 0 Z " fill="#D6D5D0" transform="translate(84,151)"/>
<path d="M0 0 C0.66 0 1.32 0 2 0 C2.33 3.63 2.66 7.26 3 11 C0.03 11 -2.94 11 -6 11 C-5.67 10.34 -5.34 9.68 -5 9 C-3.35 9 -1.7 9 0 9 C0 8.01 0 7.02 0 6 C-0.66 5.67 -1.32 5.34 -2 5 C-1.34 3.35 -0.68 1.7 0 0 Z " fill="#EAE9E5" transform="translate(89,134)"/>
<path d="M0 0 C1.2065625 0.0309375 1.2065625 0.0309375 2.4375 0.0625 C2.4375 0.7225 2.4375 1.3825 2.4375 2.0625 C-0.77432149 3.96858098 -3.10132603 4.28516247 -6.8125 4.1875 C-7.70453125 4.16945312 -8.5965625 4.15140625 -9.515625 4.1328125 C-10.52882812 4.09800781 -10.52882812 4.09800781 -11.5625 4.0625 C-11.5625 3.4025 -11.5625 2.7425 -11.5625 2.0625 C-9.51171875 1.83463542 -7.4609375 1.60677083 -5.41015625 1.37890625 C-2.80458624 0.93270927 -2.89290947 0.07055877 0 0 Z " fill="#756260" transform="translate(69.5625,199.9375)"/>
<path d="M0 0 C3.63 0 7.26 0 11 0 C12.43088528 2.86177057 11.59991697 4.93375773 11 8 C10.01 8 9.02 8 8 8 C8 6.02 8 4.04 8 2 C7.05125 2.04125 6.1025 2.0825 5.125 2.125 C2 2 2 2 0 0 Z " fill="#FDFAED" transform="translate(81,196)"/>
<path d="M0 0 C3.3 0 6.6 0 10 0 C10 0.33 10 0.66 10 1 C9.21625 1.144375 8.4325 1.28875 7.625 1.4375 C5.03578982 1.87798925 5.03578982 1.87798925 3 3 C3 3.66 3 4.32 3 5 C1.02 5.66 -0.96 6.32 -3 7 C-1.125 2.25 -1.125 2.25 0 0 Z " fill="#DDDDD8" transform="translate(147,153)"/>
<path d="M0 0 C0 0.66 0 1.32 0 2 C-1.43344 2.53190541 -2.87195367 3.05015258 -4.3125 3.5625 C-5.51326172 3.99755859 -5.51326172 3.99755859 -6.73828125 4.44140625 C-9 5 -9 5 -12 4 C-8.41084094 -0.78554541 -5.58334594 -0.37222306 0 0 Z " fill="#0F0F0C" transform="translate(108,207)"/>
<path d="M0 0 C0.66 0.33 1.32 0.66 2 1 C2.6328125 3.94140625 2.6328125 3.94140625 3.125 7.5625 C3.29257813 8.76003906 3.46015625 9.95757812 3.6328125 11.19140625 C3.75398438 12.11824219 3.87515625 13.04507813 4 14 C3.01 14.495 3.01 14.495 2 15 C0.23575393 11.91076913 -0.36917568 9.34537815 -0.6875 5.8125 C-0.77386719 4.93207031 -0.86023438 4.05164063 -0.94921875 3.14453125 C-0.96597656 2.43683594 -0.98273438 1.72914063 -1 1 C-0.67 0.67 -0.34 0.34 0 0 Z " fill="#1D2C2F" transform="translate(65,170)"/>
<path d="M0 0 C3.43453198 1.53796908 6.14389276 3.5735602 9.0625 5.9375 C9.91972656 6.62714844 10.77695312 7.31679687 11.66015625 8.02734375 C13.54469703 9.61614692 15.29868089 11.22058755 17 13 C12.98981897 11.61047587 10.09967277 9.73301706 6.8125 7.0625 C5.95269531 6.37285156 5.09289063 5.68320313 4.20703125 4.97265625 C2 3 2 3 0 0 Z " fill="#846C69" transform="translate(46,78)"/>
<path d="M0 0 C0.66 0 1.32 0 2 0 C0.60344703 3.49873271 -0.71260484 4.70891831 -4.125 6.25 C-5.21167969 6.75273437 -5.21167969 6.75273437 -6.3203125 7.265625 C-7.15175781 7.62914062 -7.15175781 7.62914062 -8 8 C-8 7.34 -8 6.68 -8 6 C-8.66 5.67 -9.32 5.34 -10 5 C-9.36191406 4.72285156 -8.72382813 4.44570312 -8.06640625 4.16015625 C-7.24011719 3.79792969 -6.41382813 3.43570313 -5.5625 3.0625 C-4.73878906 2.70285156 -3.91507813 2.34320313 -3.06640625 1.97265625 C-1.05589883 1.16877677 -1.05589883 1.16877677 0 0 Z " fill="#1F140D" transform="translate(191,194)"/>
<path d="M0 0 C0.99 0.33 1.98 0.66 3 1 C3.33 1.99 3.66 2.98 4 4 C5.50014467 5.50014467 7.025332 6.97531581 8.5625 8.4375 C11 11 11 11 12 14 C8.66950878 12.57369692 6.68261063 10.84985604 4.3125 8.125 C3.71050781 7.44695312 3.10851563 6.76890625 2.48828125 6.0703125 C0.99233806 3.98934166 0.4210244 2.50369174 0 0 Z " fill="#84706C" transform="translate(32,192)"/>
<path d="M0 0 C3 0 3 0 5 1 C4.1875 3.9375 4.1875 3.9375 3 7 C2.01 7.33 1.02 7.66 0 8 C-0.38063221 5.6739143 -0.71269945 3.33944736 -1 1 C-0.67 0.67 -0.34 0.34 0 0 Z M0 2 C1 4 1 4 1 4 Z " fill="#866B6B" transform="translate(202,196)"/>
<path d="M0 0 C0.66 0 1.32 0 2 0 C2.1953125 6.0546875 2.1953125 6.0546875 2 8 C1.34 8.66 0.68 9.32 0 10 C-0.66 9.67 -1.32 9.34 -2 9 C-1.125 1.125 -1.125 1.125 0 0 Z " fill="#FBF9F1" transform="translate(178,173)"/>
<path d="M0 0 C2.29013653 3.4352048 2.17842973 4.985331 2 9 C-0.31 9 -2.62 9 -5 9 C-4.0409375 7.88625 -4.0409375 7.88625 -3.0625 6.75 C-1.21666593 4.2888879 -0.43930826 2.96533074 0 0 Z " fill="#896B67" transform="translate(194,191)"/>
<path d="M0 0 C2.475 0.99 2.475 0.99 5 2 C3.68 2.33 2.36 2.66 1 3 C1.33 4.65 1.66 6.3 2 8 C1.01 8 0.02 8 -1 8 C-1.93065133 5.39417629 -2.14917407 4.35801776 -1.0625 1.75 C-0.711875 1.1725 -0.36125 0.595 0 0 Z " fill="#846B66" transform="translate(52,203)"/>
<path d="M0 0 C0.33 0 0.66 0 1 0 C1 3.3 1 6.6 1 10 C0.34 9.34 -0.32 8.68 -1 8 C-1.66 8.99 -2.32 9.98 -3 11 C-4 8 -4 8 -3.22265625 5.95703125 C-2.83980469 5.24933594 -2.45695312 4.54164063 -2.0625 3.8125 C-1.68222656 3.09707031 -1.30195312 2.38164062 -0.91015625 1.64453125 C-0.60980469 1.10183594 -0.30945312 0.55914062 0 0 Z " fill="#E4E2DF" transform="translate(64,172)"/>
<path d="M0 0 C1.98 0.66 3.96 1.32 6 2 C6 2.99 6 3.98 6 5 C4.25 5.6875 4.25 5.6875 2 6 C-0.25 4.5625 -0.25 4.5625 -2 3 C-1.34 2.34 -0.68 1.68 0 1 C0 0.67 0 0.34 0 0 Z " fill="#DEDDD7" transform="translate(164,155)"/>
<path d="M0 0 C0.99 0 1.98 0 3 0 C3 2.64 3 5.28 3 8 C2.01 8.33 1.02 8.66 0 9 C0 6.03 0 3.06 0 0 Z " fill="#251711" transform="translate(102,76)"/>
<path d="M0 0 C2.32472205 2.85306797 3.7508258 5.54074837 5 9 C3.68 9 2.36 9 1 9 C-0.98 5.535 -0.98 5.535 -3 2 C-2.34 2 -1.68 2 -1 2 C-0.67 1.34 -0.34 0.68 0 0 Z " fill="#211814" transform="translate(96,148)"/>
<path d="M0 0 C0.33 0 0.66 0 1 0 C0.50769231 6.4 0.50769231 6.4 -2.0625 9.4375 C-2.701875 9.953125 -3.34125 10.46875 -4 11 C-3.49172849 6.62886504 -2.54826592 3.61004338 0 0 Z " fill="#181713" transform="translate(73,151)"/>
<path d="M0 0 C0.6875 1.6875 0.6875 1.6875 1 4 C-0.3125 6.75 -0.3125 6.75 -2 9 C-2.66 9 -3.32 9 -4 9 C-3.47731534 6.23723823 -2.89130413 3.6739124 -2 1 C-1.34 0.67 -0.68 0.34 0 0 Z " fill="#130C0A" transform="translate(180,184)"/>
<path d="M0 0 C0.33 0 0.66 0 1 0 C2.125 6.625 2.125 6.625 1 10 C0.34 10 -0.32 10 -1 10 C-1.33 10.99 -1.66 11.98 -2 13 C-2.99 12.34 -3.98 11.68 -5 11 C-4.0409375 10.2265625 -4.0409375 10.2265625 -3.0625 9.4375 C-0.44208319 6.34064377 -0.30610183 3.97932377 0 0 Z " fill="#231915" transform="translate(90,124)"/>
<path d="M0 0 C1.9375 0.6875 1.9375 0.6875 4 2 C4.75 4.625 4.75 4.625 5 7 C4.01 7.33 3.02 7.66 2 8 C0.74335022 5.09399739 0 3.20395416 0 0 Z " fill="#E2D8CF" transform="translate(68,188)"/>
<path d="M0 0 C2.475 0.495 2.475 0.495 5 1 C4.625 3.4375 4.625 3.4375 4 6 C3.01 6.495 3.01 6.495 2 7 C1.34 4.69 0.68 2.38 0 0 Z " fill="#FCF6EE" transform="translate(174,163)"/>
<path d="M0 0 C4.43458973 1.3937282 6.87378374 3.60582235 10 7 C5.76570244 5.68938409 1.92592596 4.05643741 -2 2 C-1.34 1.34 -0.68 0.68 0 0 Z " fill="#21100E" transform="translate(61,91)"/>
<path d="M0 0 C-1.98 0.66 -3.96 1.32 -6 2 C-6.33 3.98 -6.66 5.96 -7 8 C-7.33 8 -7.66 8 -8 8 C-8 6.02 -8 4.04 -8 2 C-8.99 1.67 -9.98 1.34 -11 1 C-11 0.67 -11 0.34 -11 0 C-3.375 -1.125 -3.375 -1.125 0 0 Z " fill="#FEF7EC" transform="translate(162,198)"/>
<path d="M0 0 C1.22589844 0.29197266 1.22589844 0.29197266 2.4765625 0.58984375 C3.41628906 0.82380859 3.41628906 0.82380859 4.375 1.0625 C4.375 1.3925 4.375 1.7225 4.375 2.0625 C1.075 2.0625 -2.225 2.0625 -5.625 2.0625 C-5.955 1.4025 -6.285 0.7425 -6.625 0.0625 C-3.99249612 -1.25375194 -2.82320944 -0.68563658 0 0 Z " fill="#F7F1EA" transform="translate(105.625,210.9375)"/>
<path d="M0 0 C0.66 0 1.32 0 2 0 C2 1.98 2 3.96 2 6 C0.35 6.33 -1.3 6.66 -3 7 C-1.125 1.125 -1.125 1.125 0 0 Z " fill="#1E100C" transform="translate(47,199)"/>
<path d="M0 0 C1.32 0.33 2.64 0.66 4 1 C3.02501855 2.5027237 2.04490611 4.00211963 1.0625 5.5 C0.51722656 6.3353125 -0.02804688 7.170625 -0.58984375 8.03125 C-1.05519531 8.6809375 -1.52054687 9.330625 -2 10 C-2.33 10 -2.66 10 -3 10 C-3.1875 7.6875 -3.1875 7.6875 -3 5 C-1.5 3.3125 -1.5 3.3125 0 2 C0 1.34 0 0.68 0 0 Z " fill="#886E67" transform="translate(100,92)"/>
<path d="M0 0 C0 1.65 0 3.3 0 5 C0.66 5.33 1.32 5.66 2 6 C0.35 6 -1.3 6 -3 6 C-3.33 4.68 -3.66 3.36 -4 2 C-1 0 -1 0 0 0 Z " fill="#2C2622" transform="translate(174,198)"/>
<path d="M0 0 C1.11196276 3.33588828 1.09809194 4.70572419 0 8 C-2.0625 9.3125 -2.0625 9.3125 -4 10 C-3.43454163 6.04179141 -2.19097652 3.3340947 0 0 Z " fill="#876D67" transform="translate(35,119)"/>
<path d="M0 0 C0.66 0 1.32 0 2 0 C1.25 7.75 1.25 7.75 -1 10 C-1.125 3.375 -1.125 3.375 0 0 Z " fill="#E2E1DE" transform="translate(150,219)"/>
<path d="M0 0 C0.66 0 1.32 0 2 0 C5 4.38461538 5 4.38461538 5 7 C3.68 7 2.36 7 1 7 C0.67 4.69 0.34 2.38 0 0 Z " fill="#211410" transform="translate(195,191)"/>
<path d="M0 0 C0 0.99 0 1.98 0 3 C-3.465 4.485 -3.465 4.485 -7 6 C-7 4.68 -7 3.36 -7 2 C-4.69 1.34 -2.38 0.68 0 0 Z " fill="#5BC4C3" transform="translate(165,179)"/>
<path d="M0 0 C-2.62647188 1.75098126 -5.28775382 3.38731308 -8 5 C-7.67 3.35 -7.34 1.7 -7 0 C-3.98968256 -0.93423645 -3.13349732 -1.04449911 0 0 Z " fill="#1C2D2A" transform="translate(150,159)"/>
<path d="M0 0 C2.31 0 4.62 0 7 0 C7 0.99 7 1.98 7 3 C4.69 3 2.38 3 0 3 C0 2.01 0 1.02 0 0 Z " fill="#FDFDF8" transform="translate(150,154)"/>
<path d="M0 0 C1.9375 0.8125 1.9375 0.8125 4 2 C4.33 2.99 4.66 3.98 5 5 C2.36 4.34 -0.28 3.68 -3 3 C-2.01 2.01 -1.02 1.02 0 0 Z " fill="#DAD8D4" transform="translate(165,147)"/>
<path d="M0 0 C2.97 0.495 2.97 0.495 6 1 C5.01 2.485 5.01 2.485 4 4 C2.35 3.67 0.7 3.34 -1 3 C-0.67 2.01 -0.34 1.02 0 0 Z " fill="#130D0C" transform="translate(80,216)"/>
<path d="M0 0 C0.66 0.33 1.32 0.66 2 1 C0.75453595 4.73639216 -0.63404953 5.18756513 -4 7 C-4 3 -4 3 -2 1 C-1.34 0.67 -0.68 0.34 0 0 Z " fill="#7A5B54" transform="translate(183,203)"/>
<path d="M0 0 C3.63 0.33 7.26 0.66 11 1 C11 1.33 11 1.66 11 2 C9.54263913 2.19491452 8.08405407 2.38069358 6.625 2.5625 C5.81289062 2.66691406 5.00078125 2.77132812 4.1640625 2.87890625 C2 3 2 3 0 2 C0 1.34 0 0.68 0 0 Z " fill="#193A3F" transform="translate(146,194)"/>
<path d="M0 0 C1.98 0.99 1.98 0.99 4 2 C4 2.66 4 3.32 4 4 C3.01 4 2.02 4 1 4 C1 5.65 1 7.3 1 9 C0.67 9 0.34 9 0 9 C0 6.03 0 3.06 0 0 Z " fill="#FAF7F1" transform="translate(108,171)"/>
<path d="M0 0 C0.66 1.32 1.32 2.64 2 4 C2.66 4 3.32 4 4 4 C4 4.66 4 5.32 4 6 C2.35 6 0.7 6 -1 6 C-0.67 4.02 -0.34 2.04 0 0 Z " fill="#E5E0DC" transform="translate(152,142)"/>
<path d="M0 0 C2.125 0.9375 2.125 0.9375 4 2 C3.67 2.66 3.34 3.32 3 4 C2.01 3.67 1.02 3.34 0 3 C-0.66 4.32 -1.32 5.64 -2 7 C-2 5.02 -2 3.04 -2 1 C-1.34 0.67 -0.68 0.34 0 0 Z " fill="#312C2A" transform="translate(155,131)"/>
<path d="M0 0 C0.8125 1.6875 0.8125 1.6875 1 4 C-1.4375 6.75 -1.4375 6.75 -4 9 C-3.46930939 5.17902761 -2.50298434 2.93828597 0 0 Z " fill="#826E68" transform="translate(150,24)"/>
<path d="M0 0 C1.32 0.99 2.64 1.98 4 3 C2.02 3.99 2.02 3.99 0 5 C0 4.34 0 3.68 0 3 C-0.66 2.67 -1.32 2.34 -2 2 C-1.34 1.34 -0.68 0.68 0 0 Z M-4 3 C-3.34 3.33 -2.68 3.66 -2 4 C-2.99 4 -3.98 4 -5 4 C-4.67 3.67 -4.34 3.34 -4 3 Z " fill="#25221D" transform="translate(127,208)"/>
<path d="M0 0 C0.33 1.32 0.66 2.64 1 4 C0.01 4.66 -0.98 5.32 -2 6 C-2.99 5.34 -3.98 4.68 -5 4 C-3.35 2.68 -1.7 1.36 0 0 Z " fill="#2D2A25" transform="translate(96,209)"/>
<path d="M0 0 C3 1.1875 3 1.1875 5 3.1875 C-1.625 2.4375 -1.625 2.4375 -5 0.1875 C-3 -0.8125 -3 -0.8125 0 0 Z " fill="#F3ECDE" transform="translate(75,192.8125)"/>
<path d="M0 0 C2.97 0.33 5.94 0.66 9 1 C9 1.66 9 2.32 9 3 C8.01 3 7.02 3 6 3 C5.67 3.66 5.34 4.32 5 5 C3.33333333 3.33333333 1.66666667 1.66666667 0 0 Z " fill="#42C0D3" transform="translate(147,160)"/>
<path d="M0 0 C0.99 0.33 1.98 0.66 3 1 C1.63016497 4.16115776 1.0109362 4.9927092 -2 7 C-2 3 -2 3 0 0 Z " fill="#866F64" transform="translate(138,156)"/>
<path d="M0 0 C3.7952131 1.49097658 5.61042731 3.75700849 8 7 C7.01 7.33 6.02 7.66 5 8 C1.125 2.25 1.125 2.25 0 0 Z " fill="#1E0D09" transform="translate(141,103)"/>
<path d="M0 0 C0.66 0.33 1.32 0.66 2 1 C0.68 3.64 -0.64 6.28 -2 9 C-2.66 8.67 -3.32 8.34 -4 8 C-2.87548273 5.0280615 -1.77706209 2.66559313 0 0 Z " fill="#20120C" transform="translate(102,94)"/>
</svg>
